<?xml version="1.0" standalone="no"?>
<!DOCTYPE svg PUBLIC "-//W3C//DTD SVG 20010904//EN"
 "http://www.w3.org/TR/2001/REC-SVG-20010904/DTD/svg10.dtd">
<svg version="1.0" xmlns="http://www.w3.org/2000/svg"
 width="200.000000pt" height="200.000000pt" viewBox="0 0 200.000000 200.000000"
 preserveAspectRatio="xMidYMid meet">

<g transform="translate(0.000000,200.000000) scale(0.100000,-0.100000)"
fill="#000000" stroke="none">
<path d="M572 1668 c-11 -15 -42 -143 -107 -448 -119 -552 -223 -824 -335
-870 -37 -15 -39 -30 -3 -30 28 0 78 34 125 84 36 39 129 227 163 330 31 93
83 301 120 476 14 69 40 188 57 265 45 204 45 205 15 205 -13 0 -29 -6 -35
-12z"/>
<path d="M716 1387 c-54 -56 -110 -163 -135 -261 -23 -88 -26 -142 -11 -198
10 -33 8 -38 -20 -66 l-30 -30 0 -162 c0 -181 6 -200 67 -221 27 -9 45 -9 74
0 54 16 69 42 69 124 l0 68 -42 -3 -43 -3 -5 -54 c-5 -57 -25 -79 -35 -39 -3
13 -4 77 -3 143 3 105 5 120 21 123 14 3 17 -4 17 -42 l0 -46 46 0 46 0 -4 64
-4 63 42 23 c84 44 221 201 209 239 -3 11 3 28 14 42 18 22 20 22 26 7 13 -33
1 -251 -15 -275 -26 -41 -60 -25 -60 28 0 10 -4 19 -9 19 -21 0 -41 -13 -41
-26 0 -9 -11 -14 -31 -14 -81 0 -99 -39 -99 -217 0 -166 11 -200 75 -222 35
-12 45 -11 78 2 58 25 68 60 66 230 -1 137 -1 142 20 145 21 3 21 1 21 -187
l0 -191 74 0 c41 0 82 3 91 6 36 14 45 57 45 217 0 132 2 156 16 161 9 3 18 6
20 6 2 0 4 -88 4 -195 l0 -195 90 0 90 0 0 40 0 40 -45 0 -45 0 0 55 0 55 40
0 40 0 0 40 0 40 -40 0 -40 0 0 45 0 45 46 0 45 0 -3 38 -3 37 -74 3 c-70 3
-73 4 -67 25 3 12 6 95 6 184 l0 162 27 -2 c33 -2 53 30 53 90 0 37 -4 44 -30
58 -73 38 -110 11 -110 -77 0 -53 -6 -72 -41 -137 -40 -73 -129 -205 -134
-199 -1 2 -5 63 -8 136 l-6 132 23 -6 c29 -7 52 20 60 72 8 53 -14 82 -66 91
-55 8 -68 -7 -68 -81 0 -56 -5 -70 -50 -149 -85 -148 -152 -238 -205 -275 -43
-29 -55 -33 -90 -27 -21 3 -43 11 -47 18 -11 17 -10 75 3 140 10 48 18 61 58
93 54 44 141 145 165 193 22 41 14 74 -19 89 -44 20 -67 14 -109 -31z m59 -64
c-17 -41 -81 -123 -96 -123 -23 0 -1 44 68 138 31 41 48 32 28 -15z m325 24
c0 -23 -17 -47 -32 -47 -12 0 -9 45 4 58 18 18 28 14 28 -11z m248 2 c1 -8 -4
-23 -12 -34 -21 -29 -40 -8 -26 29 10 28 33 31 38 5z m-82 -205 c13 -50 -1
-230 -20 -259 -22 -34 -49 -29 -56 10 -6 36 -39 47 -47 16 -4 -17 -13 -21 -50
-21 -37 0 -44 3 -39 16 3 9 6 22 6 30 0 8 11 19 24 23 27 11 66 59 121 149 21
34 42 62 46 62 5 0 12 -12 15 -26z m-378 -476 c-3 -119 -5 -143 -18 -143 -13
0 -15 24 -18 143 -2 138 -2 142 18 142 20 0 20 -4 18 -142z m256 126 c3 -9 6
-69 6 -134 0 -91 -3 -120 -15 -130 -29 -24 -35 0 -35 141 0 130 1 139 19 139
10 0 22 -7 25 -16z"/>
<path d="M1487 883 c-4 -3 -7 -102 -7 -220 l0 -213 45 0 45 0 0 101 c0 90 2
100 18 97 14 -3 17 -17 20 -101 l3 -97 39 0 40 0 0 100 c0 72 -4 103 -14 112
-12 11 -12 15 0 29 33 37 29 144 -7 180 -16 16 -33 19 -97 19 -43 0 -82 -3
-85 -7z m121 -115 c-2 -30 -8 -43 -18 -43 -10 0 -16 13 -18 43 -3 37 -1 42 18
42 19 0 21 -5 18 -42z"/>
<path d="M1766 708 c4 -7 23 -33 43 -58 19 -25 38 -50 43 -55 4 -6 -15 -40
-43 -75 -54 -71 -58 -80 -29 -80 12 0 39 26 74 72 l55 73 -25 32 c-13 18 -36
49 -50 68 -18 23 -35 35 -51 35 -17 0 -22 -4 -17 -12z"/>
</g>
</svg>
